<svg viewBox="0 0 128 128" xmlns="http://www.w3.org/2000/svg" id="technology">
  <style>
    @media (prefers-color-scheme: light) {
      :root, body[data-color-scheme="auto"], body[data-color-scheme="light"] {
        --color-documentation-intro-accent-outer: #000;
        --color-documentation-intro-accent-inner: #fff;
      }
      body[data-color-scheme="dark"] {
        --color-documentation-intro-accent-outer: #fff;
        --color-documentation-intro-accent-inner: #000;
      }
    }
    @media (prefers-color-scheme: dark) {
      :root, body[data-color-scheme="auto"], body[data-color-scheme="dark"] {
        --color-documentation-intro-accent-outer: #fff;
        --color-documentation-intro-accent-inner: #000;
      }
      body[data-color-scheme="light"] {
        --color-documentation-intro-accent-outer: #000;
        --color-documentation-intro-accent-inner: #fff;
      }
    }
  </style>
  <title>SQLiteNIO</title>
  <linearGradient id="a" x1="0" x2="1" y1="0.5" y2="0.5">
    <stop stop-color="#3dc4ff" offset="0"/>
    <stop stop-color="#e040fb" offset="0.75"/>
  </linearGradient>
  <path style="fill: #40c4ff; fill-opacity: 1.0;" d="m64.33,92.04c.8,1.91.2,5.24.4,7.7,0,1.86.1,6.16-.3,6.26.45-1.7-1.17-2.2-2.19-3.1-18.41-14.51-36.83-28.99-55.24-43.46v-12.44c19.11,15.01,38.22,30.03,57.33,45.04z"/>
  <path style="fill: #3dc4ff; fill-opacity: 1.0;" d="m64.66,116.2c-.73.7-1.59-.9-2.38-1.2-18.43-14.5-36.85-28.99-55.28-43.46v-12.44c19.11,15.01,38.22,30.03,57.33,45,.77.2.11,1.9.33,2.6v9.5z"/>
  <path style="fill: #3dc4ff; fill-opacity: 1.0;" d="m64.66,127.7c-.71.7-1.58-1-2.37-1.3-18.43-14.5-36.86-28.96-55.29-43.44v-11.76c19.11,15.01,38.22,30,57.33,45,.69-.6.17,1.7.33,2.3v9.2z"/>
  <path style="fill: #e040fb; fill-opacity: 1.0;" d="m64,92.04v12.46c19-15.04,38-30.05,57-45.06v-12.44c-19,15.01-38,30.03-57,45.04z"/>
  <path style="fill: #e040fb; fill-opacity: 1.0;" d="m121,71.54v-12.44c-19,15.01-38,30.03-57,45v12.5c19-15,38-30.05,57-45.06z"/>
  <path style="fill: #e040fb; fill-opacity: 1.0;" d="m121,83.3v-12.1c-19,15.01-38,30-57,45v11.8l57-44.7z"/>
  <path style="fill: #ffffff; fill-opacity: .25;" d="m64.66,116.2c-.73.7-1.59-.9-2.38-1.2-18.43-14.5-36.85-28.99-55.28-43.46v-12.44c19.11,15.01,38.22,30.03,57.33,45,.77.2.11,1.9.33,2.6v9.5z"/>
  <path style="fill: #ffffff; fill-opacity: 0.5;" d="m64.66,127.7c-.71.7-1.58-1-2.37-1.3-18.43-14.5-36.86-28.96-55.29-43.44v-11.76c19.11,15.01,38.22,30,57.33,45,.69-.6.17,1.7.33,2.3v9.2z"/>
  <path style="fill: #ffffff; fill-opacity: .25;" d="m121,71.54v-12.44c-19,15.01-38,30.03-57,45v12.5c19-15,38-30.05,57-45.06z"/>
  <path style="fill: #ffffff; fill-opacity: 0.5;" d="m121,83.3v-12.1c-19,15.01-38,30-57,45v11.8l57-44.7z"/>
  <path style="fill: var(--color-documentation-intro-accent-outer);" d="m7,46.84,55.66-46.84,58.34,46.84v.33l-57,44.83-57-44.83z"/>
  <path style="fill: var(--color-documentation-intro-accent-inner); stroke: url(#a); stroke-width: 1.25;" d="m95.38,45.89c-.32.44-.58.92-.94,1.41-4.77,6.66-9.53,13.31-14.94,19.71-1.89,2.29-3.94,4.45-6.31,6.44-.63.52-1.37.97-2.11,1.41-.89.48-1.48.18-1.48.18,0,0,0,0-.1-.1-.1,0-.1,0-.11-.1-5.75-5.76-10.06-12.18-13.32-19.12-2.72-5.72-4.64-11.57-5.34-17.73-.41-3.65-.34-7.26.63-10.83,0,0,0-.1,0-.1,0-.1,0-.22-.16-.22-.41,1.23-.88,2.42-1.18,3.66-1.74,6.78-1.24,13.47.74,20.16,1.65,5.27,4.41,10.33,7.75,15.08.38.83-.2.7-0.52.53-3.53-1.4-6.57-3.29-9.04-5.75-8.8-8.52-10.55-18.25-6.73-28.73.83-2.2,1.92-4.36,3.23-6.35,2.14-3.39,5.51-6.57,7.35-8.2.47-.39,1.17-.26,1.28.26.55,2.12,2.76,5.24,2.71,5.28.7,1.19,1.78,2.42,2.69,3.6.1.14.27.31.33.44,1.67,2.24-2.2,8.86-2.2,8.86l5.21-4.9c1.03,1.45,1.89,2.94,2.59,4.22.1,0,.1,0,.1.13,0,0,.11.18.11.26,2.82,5.46,3.18,9.33,3.18,9.68.57,3.61.39,7.22-.36,10.87-.56,2.69-1.44,5.38-2.15,8.02,0,.22-.11.35,0,.48,0,.14,0,.22.11.36l3.44,9.01,3.89-3.97c8.1-7.41,14.76-15.83,21.69-24.03z"/>
</svg>
